<svg width="400" height="371" viewBox="0 0 400 371" fill="none" xmlns="http://www.w3.org/2000/svg">
<path d="M40.6552 364.169H31.6852L29.7532 368.47H27.9822L35.3422 352.37H37.0212L44.3812 368.47H42.5872L40.6552 364.169ZM40.0342 362.789L36.1702 354.141L32.3062 362.789H40.0342ZM63.7019 368.608C62.1072 368.608 60.6659 368.255 59.3779 367.55C58.1052 366.844 57.1009 365.871 56.3649 364.629C55.6442 363.371 55.2839 361.968 55.2839 360.42C55.2839 358.871 55.6442 357.476 56.3649 356.234C57.1009 354.976 58.1129 353.995 59.4009 353.29C60.6889 352.584 62.1302 352.232 63.7249 352.232C64.9209 352.232 66.0249 352.431 67.0369 352.83C68.0489 353.228 68.9076 353.811 69.6129 354.578L68.5319 355.659C67.2746 354.386 65.6876 353.75 63.7709 353.75C62.4982 353.75 61.3406 354.041 60.2979 354.624C59.2552 355.206 58.4349 356.004 57.8369 357.016C57.2542 358.028 56.9629 359.162 56.9629 360.42C56.9629 361.677 57.2542 362.812 57.8369 363.824C58.4349 364.836 59.2552 365.633 60.2979 366.216C61.3406 366.798 62.4982 367.09 63.7709 367.09C65.7029 367.09 67.2899 366.446 68.5319 365.158L69.6129 366.239C68.9076 367.005 68.0412 367.596 67.0139 368.01C66.0019 368.408 64.8979 368.608 63.7019 368.608ZM89.7862 368.608C88.1916 368.608 86.7502 368.255 85.4622 367.55C84.1896 366.844 83.1852 365.871 82.4492 364.629C81.7286 363.371 81.3682 361.968 81.3682 360.42C81.3682 358.871 81.7286 357.476 82.4492 356.234C83.1852 354.976 84.1972 353.995 85.4852 353.29C86.7732 352.584 88.2146 352.232 89.8092 352.232C91.0052 352.232 92.1092 352.431 93.1212 352.83C94.1332 353.228 94.9919 353.811 95.6972 354.578L94.6162 355.659C93.3589 354.386 91.7719 353.75 89.8552 353.75C88.5826 353.75 87.4249 354.041 86.3822 354.624C85.3396 355.206 84.5192 356.004 83.9212 357.016C83.3386 358.028 83.0472 359.162 83.0472 360.42C83.0472 361.677 83.3386 362.812 83.9212 363.824C84.5192 364.836 85.3396 365.633 86.3822 366.216C87.4249 366.798 88.5826 367.09 89.8552 367.09C91.7872 367.09 93.3742 366.446 94.6162 365.158L95.6972 366.239C94.9919 367.005 94.1256 367.596 93.0982 368.01C92.0862 368.408 90.9822 368.608 89.7862 368.608ZM120.6 366.998V368.47H109.215V352.37H120.255V353.842H110.917V359.569H119.243V361.018H110.917V366.998H120.6ZM138.93 368.608C137.734 368.608 136.584 368.416 135.48 368.033C134.392 367.649 133.548 367.143 132.95 366.515L133.617 365.204C134.2 365.786 134.974 366.262 135.94 366.63C136.906 366.982 137.903 367.159 138.93 367.159C140.372 367.159 141.453 366.898 142.173 366.377C142.894 365.84 143.254 365.15 143.254 364.307C143.254 363.663 143.055 363.149 142.656 362.766C142.273 362.382 141.798 362.091 141.23 361.892C140.663 361.677 139.873 361.447 138.861 361.202C137.65 360.895 136.684 360.604 135.963 360.328C135.243 360.036 134.622 359.599 134.1 359.017C133.594 358.434 133.341 357.644 133.341 356.648C133.341 355.835 133.556 355.099 133.985 354.44C134.415 353.765 135.074 353.228 135.963 352.83C136.853 352.431 137.957 352.232 139.275 352.232C140.195 352.232 141.092 352.362 141.966 352.623C142.856 352.868 143.622 353.213 144.266 353.658L143.691 355.015C143.017 354.57 142.296 354.24 141.529 354.026C140.763 353.796 140.011 353.681 139.275 353.681C137.865 353.681 136.799 353.957 136.078 354.509C135.373 355.045 135.02 355.743 135.02 356.602C135.02 357.246 135.212 357.767 135.595 358.166C135.994 358.549 136.485 358.848 137.067 359.063C137.665 359.262 138.463 359.484 139.459 359.73C140.64 360.021 141.591 360.312 142.311 360.604C143.047 360.88 143.668 361.309 144.174 361.892C144.68 362.459 144.933 363.233 144.933 364.215C144.933 365.027 144.711 365.771 144.266 366.446C143.837 367.105 143.17 367.634 142.265 368.033C141.361 368.416 140.249 368.608 138.93 368.608ZM162.971 368.608C161.775 368.608 160.625 368.416 159.521 368.033C158.432 367.649 157.589 367.143 156.991 366.515L157.658 365.204C158.24 365.786 159.015 366.262 159.981 366.63C160.947 366.982 161.943 367.159 162.971 367.159C164.412 367.159 165.493 366.898 166.214 366.377C166.934 365.84 167.295 365.15 167.295 364.307C167.295 363.663 167.095 363.149 166.697 362.766C166.313 362.382 165.838 362.091 165.271 361.892C164.703 361.677 163.914 361.447 162.902 361.202C161.69 360.895 160.724 360.604 160.004 360.328C159.283 360.036 158.662 359.599 158.141 359.017C157.635 358.434 157.382 357.644 157.382 356.648C157.382 355.835 157.596 355.099 158.026 354.44C158.455 353.765 159.114 353.228 160.004 352.83C160.893 352.431 161.997 352.232 163.316 352.232C164.236 352.232 165.133 352.362 166.007 352.623C166.896 352.868 167.663 353.213 168.307 353.658L167.732 355.015C167.057 354.57 166.336 354.24 165.57 354.026C164.803 353.796 164.052 353.681 163.316 353.681C161.905 353.681 160.839 353.957 160.119 354.509C159.413 355.045 159.061 355.743 159.061 356.602C159.061 357.246 159.252 357.767 159.636 358.166C160.034 358.549 160.525 358.848 161.108 359.063C161.706 359.262 162.503 359.484 163.5 359.73C164.68 360.021 165.631 360.312 166.352 360.604C167.088 360.88 167.709 361.309 168.215 361.892C168.721 362.459 168.974 363.233 168.974 364.215C168.974 365.027 168.751 365.771 168.307 366.446C167.877 367.105 167.21 367.634 166.306 368.033C165.401 368.416 164.289 368.608 162.971 368.608ZM205.474 368.608C203.879 368.608 202.438 368.255 201.15 367.55C199.877 366.844 198.873 365.871 198.137 364.629C197.416 363.371 197.056 361.968 197.056 360.42C197.056 358.871 197.416 357.476 198.137 356.234C198.873 354.976 199.885 353.995 201.173 353.29C202.461 352.584 203.902 352.232 205.497 352.232C206.693 352.232 207.797 352.431 208.809 352.83C209.821 353.228 210.679 353.811 211.385 354.578L210.304 355.659C209.046 354.386 207.459 353.75 205.543 353.75C204.27 353.75 203.112 354.041 202.07 354.624C201.027 355.206 200.207 356.004 199.609 357.016C199.026 358.028 198.735 359.162 198.735 360.42C198.735 361.677 199.026 362.812 199.609 363.824C200.207 364.836 201.027 365.633 202.07 366.216C203.112 366.798 204.27 367.09 205.543 367.09C207.475 367.09 209.062 366.446 210.304 365.158L211.385 366.239C210.679 367.005 209.813 367.596 208.786 368.01C207.774 368.408 206.67 368.608 205.474 368.608ZM231.604 368.608C230.009 368.608 228.56 368.255 227.257 367.55C225.969 366.829 224.957 365.848 224.221 364.606C223.5 363.364 223.14 361.968 223.14 360.42C223.14 358.871 223.5 357.476 224.221 356.234C224.957 354.992 225.969 354.018 227.257 353.313C228.56 352.592 230.009 352.232 231.604 352.232C233.199 352.232 234.632 352.584 235.905 353.29C237.193 353.995 238.205 354.976 238.941 356.234C239.677 357.476 240.045 358.871 240.045 360.42C240.045 361.968 239.677 363.371 238.941 364.629C238.205 365.871 237.193 366.844 235.905 367.55C234.632 368.255 233.199 368.608 231.604 368.608ZM231.604 367.09C232.877 367.09 234.027 366.806 235.054 366.239C236.081 365.656 236.886 364.859 237.469 363.847C238.052 362.819 238.343 361.677 238.343 360.42C238.343 359.162 238.052 358.028 237.469 357.016C236.886 355.988 236.081 355.191 235.054 354.624C234.027 354.041 232.877 353.75 231.604 353.75C230.331 353.75 229.174 354.041 228.131 354.624C227.104 355.191 226.291 355.988 225.693 357.016C225.11 358.028 224.819 359.162 224.819 360.42C224.819 361.677 225.11 362.819 225.693 363.847C226.291 364.859 227.104 365.656 228.131 366.239C229.174 366.806 230.331 367.09 231.604 367.09ZM267.205 352.37V368.47H265.802L255.452 355.406V368.47H253.75V352.37H255.153L265.526 365.434V352.37H267.205ZM285.478 353.842H279.82V352.37H292.838V353.842H287.18V368.47H285.478V353.842ZM316.441 368.47L312.761 363.295C312.347 363.341 311.917 363.364 311.473 363.364H307.149V368.47H305.447V352.37H311.473C313.527 352.37 315.137 352.86 316.303 353.842C317.468 354.823 318.051 356.172 318.051 357.89C318.051 359.147 317.729 360.213 317.085 361.087C316.456 361.945 315.551 362.566 314.371 362.95L318.304 368.47H316.441ZM311.427 361.915C313.021 361.915 314.24 361.562 315.084 360.857C315.927 360.151 316.349 359.162 316.349 357.89C316.349 356.586 315.927 355.59 315.084 354.9C314.24 354.194 313.021 353.842 311.427 353.842H307.149V361.915H311.427ZM338.996 368.608C337.401 368.608 335.952 368.255 334.649 367.55C333.361 366.829 332.349 365.848 331.613 364.606C330.892 363.364 330.532 361.968 330.532 360.42C330.532 358.871 330.892 357.476 331.613 356.234C332.349 354.992 333.361 354.018 334.649 353.313C335.952 352.592 337.401 352.232 338.996 352.232C340.591 352.232 342.024 352.584 343.297 353.29C344.585 353.995 345.597 354.976 346.333 356.234C347.069 357.476 347.437 358.871 347.437 360.42C347.437 361.968 347.069 363.371 346.333 364.629C345.597 365.871 344.585 366.844 343.297 367.55C342.024 368.255 340.591 368.608 338.996 368.608ZM338.996 367.09C340.269 367.09 341.419 366.806 342.446 366.239C343.473 365.656 344.278 364.859 344.861 363.847C345.444 362.819 345.735 361.677 345.735 360.42C345.735 359.162 345.444 358.028 344.861 357.016C344.278 355.988 343.473 355.191 342.446 354.624C341.419 354.041 340.269 353.75 338.996 353.75C337.723 353.75 336.566 354.041 335.523 354.624C334.496 355.191 333.683 355.988 333.085 357.016C332.502 358.028 332.211 359.162 332.211 360.42C332.211 361.677 332.502 362.819 333.085 363.847C333.683 364.859 334.496 365.656 335.523 366.239C336.566 366.806 337.723 367.09 338.996 367.09ZM361.142 352.37H362.844V366.998H371.86V368.47H361.142V352.37Z" fill="#39E991"/>
<path d="M279.516 140.449C268.68 183.912 224.662 210.361 181.199 199.524C137.736 188.688 111.288 144.67 122.124 101.207C132.961 57.7444 176.979 31.2957 220.441 42.1322C263.904 52.9686 290.353 96.9866 279.516 140.449Z" stroke="#39E991" stroke-width="2"/>
<circle cx="200.117" cy="121.222" r="99" transform="rotate(14 200.117 121.222)" stroke="#39E991" stroke-width="2"/>
<circle cx="211.658" cy="128.668" r="91.1401" stroke="#39E991" stroke-width="10"/>
<path d="M63.8829 310.045L52.8129 294.055H52.1569H40.5949V310.045H27.3109V252.645H52.1569C57.2409 252.645 61.6416 253.492 65.3589 255.187C69.1309 256.882 72.0282 259.287 74.0509 262.403C76.0736 265.519 77.0849 269.209 77.0849 273.473C77.0849 277.737 76.0462 281.427 73.9689 284.543C71.9462 287.604 69.0489 289.955 65.2769 291.595L78.1509 310.045H63.8829ZM63.6369 273.473C63.6369 270.248 62.5982 267.788 60.5209 266.093C58.4436 264.344 55.4096 263.469 51.4189 263.469H40.5949V283.477H51.4189C55.4096 283.477 58.4436 282.602 60.5209 280.853C62.5982 279.104 63.6369 276.644 63.6369 273.473ZM129.922 288.151C129.922 288.315 129.84 289.463 129.676 291.595H96.3017C96.903 294.328 98.3244 296.488 100.566 298.073C102.807 299.658 105.595 300.451 108.93 300.451C111.226 300.451 113.248 300.123 114.998 299.467C116.802 298.756 118.469 297.663 120 296.187L126.806 303.567C122.651 308.323 116.583 310.701 108.602 310.701C103.627 310.701 99.2264 309.744 95.3997 307.831C91.573 305.863 88.621 303.157 86.5437 299.713C84.4664 296.269 83.4277 292.36 83.4277 287.987C83.4277 283.668 84.439 279.787 86.4617 276.343C88.539 272.844 91.3544 270.138 94.9077 268.225C98.5157 266.257 102.534 265.273 106.962 265.273C111.28 265.273 115.189 266.202 118.688 268.061C122.186 269.92 124.92 272.598 126.888 276.097C128.91 279.541 129.922 283.559 129.922 288.151ZM107.044 274.949C104.146 274.949 101.714 275.769 99.7457 277.409C97.7777 279.049 96.575 281.29 96.1377 284.133H117.868C117.43 281.345 116.228 279.131 114.26 277.491C112.292 275.796 109.886 274.949 107.044 274.949ZM183.948 265.929V302.665C183.948 310.756 181.844 316.769 177.634 320.705C173.425 324.641 167.275 326.609 159.184 326.609C154.92 326.609 150.875 326.09 147.048 325.051C143.222 324.012 140.051 322.509 137.536 320.541L142.62 311.357C144.479 312.888 146.83 314.09 149.672 314.965C152.515 315.894 155.358 316.359 158.2 316.359C162.628 316.359 165.881 315.348 167.958 313.325C170.09 311.357 171.156 308.35 171.156 304.305V302.419C167.822 306.082 163.175 307.913 157.216 307.913C153.171 307.913 149.454 307.038 146.064 305.289C142.73 303.485 140.078 300.97 138.11 297.745C136.142 294.52 135.158 290.802 135.158 286.593C135.158 282.384 136.142 278.666 138.11 275.441C140.078 272.216 142.73 269.728 146.064 267.979C149.454 266.175 153.171 265.273 157.216 265.273C163.612 265.273 168.478 267.378 171.812 271.587V265.929H183.948ZM159.758 297.417C163.148 297.417 165.908 296.433 168.04 294.465C170.227 292.442 171.32 289.818 171.32 286.593C171.32 283.368 170.227 280.771 168.04 278.803C165.908 276.78 163.148 275.769 159.758 275.769C156.369 275.769 153.581 276.78 151.394 278.803C149.208 280.771 148.114 283.368 148.114 286.593C148.114 289.818 149.208 292.442 151.394 294.465C153.581 296.433 156.369 297.417 159.758 297.417ZM195.854 265.929H208.646V310.045H195.854V265.929ZM202.25 259.779C199.9 259.779 197.986 259.096 196.51 257.729C195.034 256.362 194.296 254.668 194.296 252.645C194.296 250.622 195.034 248.928 196.51 247.561C197.986 246.194 199.9 245.511 202.25 245.511C204.601 245.511 206.514 246.167 207.99 247.479C209.466 248.791 210.204 250.431 210.204 252.399C210.204 254.531 209.466 256.308 207.99 257.729C206.514 259.096 204.601 259.779 202.25 259.779ZM235.36 310.701C231.698 310.701 228.117 310.264 224.618 309.389C221.12 308.46 218.332 307.312 216.254 305.945L220.518 296.761C222.486 298.018 224.864 299.057 227.652 299.877C230.44 300.642 233.174 301.025 235.852 301.025C241.264 301.025 243.97 299.686 243.97 297.007C243.97 295.75 243.232 294.848 241.756 294.301C240.28 293.754 238.012 293.29 234.95 292.907C231.342 292.36 228.363 291.732 226.012 291.021C223.662 290.31 221.612 289.053 219.862 287.249C218.168 285.445 217.32 282.876 217.32 279.541C217.32 276.753 218.113 274.293 219.698 272.161C221.338 269.974 223.689 268.28 226.75 267.077C229.866 265.874 233.529 265.273 237.738 265.273C240.854 265.273 243.943 265.628 247.004 266.339C250.12 266.995 252.69 267.924 254.712 269.127L250.448 278.229C246.567 276.042 242.33 274.949 237.738 274.949C235.005 274.949 232.955 275.332 231.588 276.097C230.222 276.862 229.538 277.846 229.538 279.049C229.538 280.416 230.276 281.372 231.752 281.919C233.228 282.466 235.579 282.985 238.804 283.477C242.412 284.078 245.364 284.734 247.66 285.445C249.956 286.101 251.952 287.331 253.646 289.135C255.341 290.939 256.188 293.454 256.188 296.679C256.188 299.412 255.368 301.845 253.728 303.977C252.088 306.109 249.683 307.776 246.512 308.979C243.396 310.127 239.679 310.701 235.36 310.701ZM292.535 307.913C291.277 308.842 289.719 309.553 287.861 310.045C286.057 310.482 284.143 310.701 282.121 310.701C276.873 310.701 272.8 309.362 269.903 306.683C267.06 304.004 265.639 300.068 265.639 294.875V276.753H258.833V266.913H265.639V256.171H278.431V266.913H289.419V276.753H278.431V294.711C278.431 296.57 278.895 298.018 279.825 299.057C280.809 300.041 282.175 300.533 283.925 300.533C285.947 300.533 287.669 299.986 289.091 298.893L292.535 307.913ZM341.568 288.151C341.568 288.315 341.486 289.463 341.322 291.595H307.948C308.55 294.328 309.971 296.488 312.212 298.073C314.454 299.658 317.242 300.451 320.576 300.451C322.872 300.451 324.895 300.123 326.644 299.467C328.448 298.756 330.116 297.663 331.646 296.187L338.452 303.567C334.298 308.323 328.23 310.701 320.248 310.701C315.274 310.701 310.873 309.744 307.046 307.831C303.22 305.863 300.268 303.157 298.19 299.713C296.113 296.269 295.074 292.36 295.074 287.987C295.074 283.668 296.086 279.787 298.108 276.343C300.186 272.844 303.001 270.138 306.554 268.225C310.162 266.257 314.18 265.273 318.608 265.273C322.927 265.273 326.836 266.202 330.334 268.061C333.833 269.92 336.566 272.598 338.534 276.097C340.557 279.541 341.568 283.559 341.568 288.151ZM318.69 274.949C315.793 274.949 313.36 275.769 311.392 277.409C309.424 279.049 308.222 281.29 307.784 284.133H329.514C329.077 281.345 327.874 279.131 325.906 277.491C323.938 275.796 321.533 274.949 318.69 274.949ZM362.303 271.751C363.833 269.619 365.883 268.006 368.453 266.913C371.077 265.82 374.083 265.273 377.473 265.273V277.081C376.051 276.972 375.095 276.917 374.603 276.917C370.94 276.917 368.07 277.956 365.993 280.033C363.915 282.056 362.877 285.117 362.877 289.217V310.045H350.085V265.929H362.303V271.751Z" fill="white"/>
<path d="M63.8829 310.045L63.0607 310.614L63.3589 311.045H63.8829V310.045ZM52.8129 294.055L53.6351 293.486L53.3368 293.055H52.8129V294.055ZM40.5949 294.055V293.055H39.5949V294.055H40.5949ZM40.5949 310.045V311.045H41.5949V310.045H40.5949ZM27.3109 310.045H26.3109V311.045H27.3109V310.045ZM27.3109 252.645V251.645H26.3109V252.645H27.3109ZM65.3589 255.187L64.9441 256.097L64.9491 256.099L65.3589 255.187ZM73.9689 284.543L73.1368 283.988L73.1345 283.992L73.9689 284.543ZM65.2769 291.595L64.8782 290.678L63.7576 291.165L64.4568 292.167L65.2769 291.595ZM78.1509 310.045V311.045H80.068L78.971 309.473L78.1509 310.045ZM60.5209 266.093L59.8768 266.858L59.8827 266.863L59.8888 266.868L60.5209 266.093ZM40.5949 263.469V262.469H39.5949V263.469H40.5949ZM40.5949 283.477H39.5949V284.477H40.5949V283.477ZM60.5209 280.853L61.165 281.618L61.165 281.618L60.5209 280.853ZM64.7051 309.476L53.6351 293.486L51.9907 294.624L63.0607 310.614L64.7051 309.476ZM52.8129 293.055H52.1569V295.055H52.8129V293.055ZM52.1569 293.055H40.5949V295.055H52.1569V293.055ZM39.5949 294.055V310.045H41.5949V294.055H39.5949ZM40.5949 309.045H27.3109V311.045H40.5949V309.045ZM28.3109 310.045V252.645H26.3109V310.045H28.3109ZM27.3109 253.645H52.1569V251.645H27.3109V253.645ZM52.1569 253.645C57.1318 253.645 61.3847 254.474 64.9441 256.097L65.7737 254.277C61.8984 252.51 57.35 251.645 52.1569 251.645V253.645ZM64.9491 256.099C68.5662 257.724 71.3057 260.011 73.2121 262.947L74.8897 261.858C72.7507 258.563 69.6955 256.039 65.7687 254.275L64.9491 256.099ZM73.2121 262.947C75.1147 265.878 76.0849 269.373 76.0849 273.473H78.0849C78.0849 269.045 77.0324 265.159 74.8897 261.858L73.2121 262.947ZM76.0849 273.473C76.0849 277.568 75.09 281.058 73.1368 283.988L74.8009 285.098C77.0025 281.795 78.0849 277.906 78.0849 273.473H76.0849ZM73.1345 283.992C71.2312 286.872 68.4948 289.105 64.8782 290.678L65.6756 292.512C69.603 290.804 72.6612 288.336 74.8032 285.094L73.1345 283.992ZM64.4568 292.167L77.3308 310.617L78.971 309.473L66.097 291.023L64.4568 292.167ZM78.1509 309.045H63.8829V311.045H78.1509V309.045ZM64.6369 273.473C64.6369 270.015 63.5108 267.242 61.153 265.318L59.8888 266.868C61.6856 268.334 62.6369 270.481 62.6369 273.473H64.6369ZM61.165 265.328C58.8394 263.37 55.5377 262.469 51.4189 262.469V264.469C55.2814 264.469 58.0477 265.318 59.8768 266.858L61.165 265.328ZM51.4189 262.469H40.5949V264.469H51.4189V262.469ZM39.5949 263.469V283.477H41.5949V263.469H39.5949ZM40.5949 284.477H51.4189V282.477H40.5949V284.477ZM51.4189 284.477C55.5377 284.477 58.8394 283.576 61.165 281.618L59.8768 280.088C58.0477 281.628 55.2814 282.477 51.4189 282.477V284.477ZM61.165 281.618C63.5068 279.646 64.6369 276.884 64.6369 273.473H62.6369C62.6369 276.403 61.6896 278.561 59.8767 280.088L61.165 281.618ZM129.676 291.595V292.595H130.602L130.673 291.672L129.676 291.595ZM96.3017 291.595V290.595H95.0578L95.3251 291.81L96.3017 291.595ZM100.566 298.073L101.143 297.257L101.143 297.257L100.566 298.073ZM114.998 299.467L115.349 300.403L115.357 300.4L115.364 300.397L114.998 299.467ZM120 296.187L120.735 295.509L120.042 294.757L119.306 295.467L120 296.187ZM126.806 303.567L127.559 304.225L128.149 303.549L127.541 302.889L126.806 303.567ZM95.3997 307.831L94.9423 308.72L94.9525 308.725L95.3997 307.831ZM86.5437 299.713L85.6874 300.229L85.6874 300.229L86.5437 299.713ZM86.4617 276.343L85.6018 275.832L85.5994 275.836L86.4617 276.343ZM94.9077 268.225L95.3818 269.105L95.3866 269.103L94.9077 268.225ZM118.688 268.061L119.157 267.178L119.157 267.178L118.688 268.061ZM126.888 276.097L126.016 276.587L126.021 276.595L126.025 276.603L126.888 276.097ZM99.7457 277.409L99.1055 276.641L99.1055 276.641L99.7457 277.409ZM96.1377 284.133L95.1493 283.981L94.9721 285.133H96.1377V284.133ZM117.868 284.133V285.133H119.037L118.856 283.978L117.868 284.133ZM114.26 277.491L113.607 278.249L113.613 278.254L113.62 278.259L114.26 277.491ZM128.922 288.151C128.922 288.144 128.922 288.157 128.919 288.209C128.917 288.254 128.913 288.316 128.908 288.396C128.898 288.556 128.883 288.778 128.863 289.064C128.822 289.635 128.761 290.453 128.679 291.518L130.673 291.672C130.834 289.577 130.922 288.366 130.922 288.151H128.922ZM129.676 290.595H96.3017V292.595H129.676V290.595ZM95.3251 291.81C95.9788 294.781 97.5393 297.157 99.9882 298.889L101.143 297.257C99.1095 295.818 97.8273 293.875 97.2784 291.38L95.3251 291.81ZM99.9882 298.889C102.432 300.618 105.433 301.451 108.93 301.451V299.451C105.757 299.451 103.182 298.699 101.143 297.257L99.9882 298.889ZM108.93 301.451C111.319 301.451 113.465 301.11 115.349 300.403L114.647 298.531C113.032 299.136 111.132 299.451 108.93 299.451V301.451ZM115.364 300.397C117.301 299.634 119.078 298.465 120.694 296.907L119.306 295.467C117.86 296.861 116.302 297.878 114.631 298.537L115.364 300.397ZM119.265 296.865L126.071 304.245L127.541 302.889L120.735 295.509L119.265 296.865ZM126.053 302.909C122.136 307.393 116.376 309.701 108.602 309.701V311.701C116.79 311.701 123.166 309.253 127.559 304.225L126.053 302.909ZM108.602 309.701C103.757 309.701 99.5138 308.77 95.8469 306.936L94.9525 308.725C98.939 310.719 103.497 311.701 108.602 311.701V309.701ZM95.8571 306.942C92.1834 305.052 89.3748 302.47 87.4 299.196L85.6874 300.229C87.8673 303.843 90.9627 306.674 94.9424 308.72L95.8571 306.942ZM87.4 299.196C85.4248 295.922 84.4277 292.195 84.4277 287.987H82.4277C82.4277 292.526 83.5079 296.616 85.6874 300.229L87.4 299.196ZM84.4277 287.987C84.4277 283.831 85.3988 280.127 87.324 276.849L85.5994 275.836C83.4793 279.446 82.4277 283.505 82.4277 287.987H84.4277ZM87.3216 276.853C89.3071 273.509 91.9896 270.932 95.3818 269.105L94.4336 267.344C90.7191 269.345 87.771 272.179 85.6019 275.832L87.3216 276.853ZM95.3866 269.103C98.8364 267.221 102.688 266.273 106.962 266.273V264.273C102.38 264.273 98.195 265.293 94.4289 267.347L95.3866 269.103ZM106.962 266.273C111.132 266.273 114.877 267.169 118.219 268.944L119.157 267.178C115.501 265.236 111.429 264.273 106.962 264.273V266.273ZM118.219 268.944C121.546 270.712 124.141 273.253 126.016 276.587L127.759 275.607C125.699 271.944 122.827 269.127 119.157 267.178L118.219 268.944ZM126.025 276.603C127.945 279.872 128.922 283.71 128.922 288.151H130.922C130.922 283.408 129.876 279.21 127.75 275.59L126.025 276.603ZM107.044 273.949C103.945 273.949 101.277 274.831 99.1055 276.641L100.386 278.177C102.151 276.706 104.348 275.949 107.044 275.949V273.949ZM99.1055 276.641C96.927 278.456 95.6189 280.929 95.1493 283.981L97.1261 284.285C97.5312 281.652 98.6284 279.642 100.386 278.177L99.1055 276.641ZM96.1377 285.133H117.868V283.133H96.1377V285.133ZM118.856 283.978C118.385 280.976 117.074 278.534 114.9 276.723L113.62 278.259C115.382 279.728 116.476 281.713 116.88 284.288L118.856 283.978ZM114.912 276.733C112.745 274.867 110.102 273.949 107.044 273.949V275.949C109.671 275.949 111.838 276.725 113.607 278.249L114.912 276.733ZM183.948 265.929H184.948V264.929H183.948V265.929ZM177.634 320.705L176.951 319.974L176.951 319.974L177.634 320.705ZM147.048 325.051L146.786 326.016L146.786 326.016L147.048 325.051ZM137.536 320.541L136.661 320.057L136.248 320.803L136.92 321.328L137.536 320.541ZM142.62 311.357L143.256 310.585L142.328 309.821L141.745 310.873L142.62 311.357ZM149.672 314.965L149.983 314.014L149.975 314.012L149.966 314.009L149.672 314.965ZM167.958 313.325L167.28 312.59L167.27 312.599L167.261 312.608L167.958 313.325ZM171.156 302.419H172.156V299.835L170.417 301.746L171.156 302.419ZM146.064 305.289L145.588 306.168L145.597 306.173L145.606 306.178L146.064 305.289ZM138.11 297.745L138.964 297.224L138.964 297.224L138.11 297.745ZM138.11 275.441L138.964 275.962L138.964 275.962L138.11 275.441ZM146.064 267.979L146.529 268.864L146.534 268.862L146.064 267.979ZM171.812 271.587L171.028 272.208L172.812 274.46V271.587H171.812ZM171.812 265.929V264.929H170.812V265.929H171.812ZM168.04 294.465L168.718 295.2L168.719 295.199L168.04 294.465ZM168.04 278.803L167.352 279.528L167.361 279.537L167.371 279.546L168.04 278.803ZM151.394 278.803L152.063 279.546L152.073 279.537L151.394 278.803ZM151.394 294.465L150.715 295.199L150.725 295.208L151.394 294.465ZM182.948 265.929V302.665H184.948V265.929H182.948ZM182.948 302.665C182.948 310.593 180.888 316.294 176.951 319.974L178.317 321.435C182.799 317.244 184.948 310.918 184.948 302.665H182.948ZM176.951 319.974C172.991 323.678 167.124 325.609 159.184 325.609V327.609C167.426 327.609 173.859 325.604 178.317 321.435L176.951 319.974ZM159.184 325.609C155.002 325.609 151.045 325.1 147.31 324.086L146.786 326.016C150.704 327.08 154.838 327.609 159.184 327.609V325.609ZM147.31 324.086C143.582 323.074 140.54 321.622 138.152 319.753L136.92 321.328C139.562 323.396 142.861 324.951 146.786 326.016L147.31 324.086ZM138.411 321.025L143.495 311.841L141.745 310.873L136.661 320.057L138.411 321.025ZM141.984 312.129C143.965 313.76 146.439 315.016 149.378 315.921L149.966 314.009C147.22 313.164 144.993 312.016 143.256 310.585L141.984 312.129ZM149.361 315.915C152.299 316.876 155.247 317.359 158.2 317.359V315.359C155.468 315.359 152.731 314.913 149.983 314.014L149.361 315.915ZM158.2 317.359C162.755 317.359 166.314 316.322 168.656 314.041L167.261 312.608C165.448 314.373 162.502 315.359 158.2 315.359V317.359ZM168.636 314.06C171.044 311.837 172.156 308.516 172.156 304.305H170.156C170.156 308.184 169.136 310.877 167.28 312.59L168.636 314.06ZM172.156 304.305V302.419H170.156V304.305H172.156ZM170.417 301.746C167.31 305.158 162.955 306.913 157.216 306.913V308.913C163.394 308.913 168.333 307.005 171.896 303.092L170.417 301.746ZM157.216 306.913C153.32 306.913 149.762 306.072 146.523 304.4L145.606 306.178C149.145 308.004 153.021 308.913 157.216 308.913V306.913ZM146.54 304.409C143.36 302.689 140.839 300.298 138.964 297.224L137.257 298.266C139.317 301.643 142.099 304.281 145.588 306.168L146.54 304.409ZM138.964 297.224C137.102 294.173 136.158 290.64 136.158 286.593H134.158C134.158 290.964 135.182 294.866 137.257 298.266L138.964 297.224ZM136.158 286.593C136.158 282.546 137.102 279.013 138.964 275.962L137.257 274.92C135.182 278.32 134.158 282.221 134.158 286.593H136.158ZM138.964 275.962C140.838 272.89 143.355 270.529 146.529 268.864L145.6 267.093C142.104 268.927 139.319 271.541 137.257 274.92L138.964 275.962ZM146.534 268.862C149.771 267.139 153.326 266.273 157.216 266.273V264.273C153.016 264.273 149.136 265.211 145.594 267.096L146.534 268.862ZM157.216 266.273C163.372 266.273 167.92 268.285 171.028 272.208L172.596 270.966C169.035 266.47 163.853 264.273 157.216 264.273V266.273ZM172.812 271.587V265.929H170.812V271.587H172.812ZM171.812 266.929H183.948V264.929H171.812V266.929ZM159.758 298.417C163.354 298.417 166.371 297.367 168.718 295.2L167.362 293.73C165.445 295.499 162.941 296.417 159.758 296.417V298.417ZM168.719 295.199C171.129 292.97 172.32 290.071 172.32 286.593H170.32C170.32 289.565 169.325 291.914 167.361 293.731L168.719 295.199ZM172.32 286.593C172.32 283.115 171.128 280.237 168.709 278.06L167.371 279.546C169.325 281.305 170.32 283.621 170.32 286.593H172.32ZM168.728 278.077C166.382 275.851 163.361 274.769 159.758 274.769V276.769C162.934 276.769 165.434 277.709 167.352 279.528L168.728 278.077ZM159.758 274.769C156.154 274.769 153.112 275.851 150.715 278.069L152.073 279.537C154.049 277.709 156.583 276.769 159.758 276.769V274.769ZM150.725 278.06C148.306 280.237 147.114 283.115 147.114 286.593H149.114C149.114 283.621 150.109 281.305 152.063 279.546L150.725 278.06ZM147.114 286.593C147.114 290.071 148.306 292.97 150.715 295.199L152.073 293.731C150.109 291.914 149.114 289.565 149.114 286.593H147.114ZM150.725 295.208C153.123 297.366 156.162 298.417 159.758 298.417V296.417C156.576 296.417 154.038 295.499 152.063 293.722L150.725 295.208ZM195.854 265.929V264.929H194.854V265.929H195.854ZM208.646 265.929H209.646V264.929H208.646V265.929ZM208.646 310.045V311.045H209.646V310.045H208.646ZM195.854 310.045H194.854V311.045H195.854V310.045ZM196.51 257.729L195.831 258.463L195.831 258.463L196.51 257.729ZM196.51 247.561L197.19 248.295L197.19 248.295L196.51 247.561ZM207.99 247.479L207.326 248.226L207.326 248.226L207.99 247.479ZM207.99 257.729L208.67 258.463L208.677 258.456L208.684 258.449L207.99 257.729ZM195.854 266.929H208.646V264.929H195.854V266.929ZM207.646 265.929V310.045H209.646V265.929H207.646ZM208.646 309.045H195.854V311.045H208.646V309.045ZM196.854 310.045V265.929H194.854V310.045H196.854ZM202.25 258.779C200.106 258.779 198.45 258.162 197.19 256.995L195.831 258.463C197.522 260.029 199.693 260.779 202.25 260.779V258.779ZM197.19 256.995C195.919 255.819 195.296 254.391 195.296 252.645H193.296C193.296 254.944 194.149 256.906 195.831 258.463L197.19 256.995ZM195.296 252.645C195.296 250.899 195.919 249.471 197.19 248.295L195.831 246.827C194.149 248.384 193.296 250.345 193.296 252.645H195.296ZM197.19 248.295C198.45 247.128 200.106 246.511 202.25 246.511V244.511C199.693 244.511 197.522 245.261 195.831 246.827L197.19 248.295ZM202.25 246.511C204.405 246.511 206.067 247.107 207.326 248.226L208.655 246.732C206.962 245.227 204.797 244.511 202.25 244.511V246.511ZM207.326 248.226C208.589 249.349 209.204 250.718 209.204 252.399H211.204C211.204 250.144 210.343 248.233 208.655 246.732L207.326 248.226ZM209.204 252.399C209.204 254.272 208.568 255.784 207.297 257.009L208.684 258.449C210.364 256.831 211.204 254.79 211.204 252.399H209.204ZM207.311 256.995C206.05 258.162 204.394 258.779 202.25 258.779V260.779C204.807 260.779 206.978 260.029 208.67 258.463L207.311 256.995ZM224.618 309.389L224.362 310.355L224.369 310.357L224.376 310.359L224.618 309.389ZM216.254 305.945L215.347 305.524L214.984 306.306L215.705 306.78L216.254 305.945ZM220.518 296.761L221.057 295.918L220.093 295.302L219.611 296.34L220.518 296.761ZM227.652 299.877L227.37 300.836L227.379 300.839L227.388 300.841L227.652 299.877ZM241.756 294.301L241.409 295.239L241.409 295.239L241.756 294.301ZM234.95 292.907L234.8 293.896L234.813 293.898L234.826 293.899L234.95 292.907ZM226.012 291.021L226.302 290.064L226.302 290.064L226.012 291.021ZM219.862 287.249L219.133 287.934L219.139 287.939L219.144 287.945L219.862 287.249ZM219.698 272.161L218.898 271.561L218.896 271.564L219.698 272.161ZM226.75 267.077L226.39 266.144L226.385 266.146L226.75 267.077ZM247.004 266.339L246.778 267.313L246.788 267.315L246.798 267.317L247.004 266.339ZM254.712 269.127L255.618 269.551L256.002 268.731L255.223 268.267L254.712 269.127ZM250.448 278.229L249.957 279.1L250.897 279.629L251.354 278.653L250.448 278.229ZM231.588 276.097L231.1 275.224L231.1 275.224L231.588 276.097ZM231.752 281.919L232.1 280.981L232.1 280.981L231.752 281.919ZM238.804 283.477L238.969 282.49L238.955 282.488L238.804 283.477ZM247.66 285.445L247.365 286.4L247.375 286.403L247.386 286.406L247.66 285.445ZM253.646 289.135L252.917 289.82L252.917 289.82L253.646 289.135ZM253.728 303.977L254.521 304.587L254.521 304.587L253.728 303.977ZM246.512 308.979L246.858 309.917L246.867 309.914L246.512 308.979ZM235.36 309.701C231.778 309.701 228.279 309.273 224.861 308.419L224.376 310.359C227.955 311.254 231.617 311.701 235.36 311.701V309.701ZM224.875 308.422C221.437 307.509 218.76 306.397 216.804 305.11L215.705 306.78C217.903 308.226 220.802 309.41 224.362 310.355L224.875 308.422ZM217.161 306.366L221.425 297.182L219.611 296.34L215.347 305.524L217.161 306.366ZM219.98 297.604C222.044 298.922 224.513 299.996 227.37 300.836L227.934 298.918C225.216 298.118 222.929 297.114 221.057 295.918L219.98 297.604ZM227.388 300.841C230.255 301.628 233.077 302.025 235.852 302.025V300.025C233.27 300.025 230.626 299.656 227.917 298.913L227.388 300.841ZM235.852 302.025C238.609 302.025 240.824 301.689 242.384 300.917C243.179 300.523 243.836 300.001 244.292 299.323C244.753 298.639 244.97 297.854 244.97 297.007H242.97C242.97 297.5 242.849 297.886 242.633 298.206C242.413 298.533 242.056 298.848 241.497 299.124C240.352 299.691 238.508 300.025 235.852 300.025V302.025ZM244.97 297.007C244.97 296.167 244.718 295.398 244.191 294.754C243.676 294.126 242.952 293.677 242.104 293.363L241.409 295.239C242.037 295.471 242.419 295.747 242.643 296.021C242.854 296.278 242.97 296.59 242.97 297.007H244.97ZM242.104 293.363C240.516 292.775 238.154 292.3 235.074 291.915L234.826 293.899C237.869 294.28 240.045 294.733 241.409 295.239L242.104 293.363ZM235.1 291.918C231.519 291.376 228.59 290.756 226.302 290.064L225.723 291.978C228.135 292.708 231.166 293.345 234.8 293.896L235.1 291.918ZM226.302 290.064C224.118 289.403 222.214 288.238 220.58 286.553L219.144 287.945C221.009 289.868 223.206 291.217 225.723 291.978L226.302 290.064ZM220.591 286.564C219.124 285.002 218.32 282.711 218.32 279.541H216.32C216.32 283.04 217.211 285.888 219.133 287.934L220.591 286.564ZM218.32 279.541C218.32 276.957 219.05 274.708 220.501 272.758L218.896 271.564C217.176 273.878 216.32 276.549 216.32 279.541H218.32ZM220.498 272.761C222.006 270.75 224.192 269.156 227.116 268.008L226.385 266.146C223.186 267.403 220.67 269.198 218.898 271.561L220.498 272.761ZM227.11 268.01C230.086 266.861 233.621 266.273 237.738 266.273V264.273C233.437 264.273 229.647 264.887 226.39 266.144L227.11 268.01ZM237.738 266.273C240.777 266.273 243.79 266.619 246.778 267.313L247.23 265.365C244.096 264.637 240.931 264.273 237.738 264.273V266.273ZM246.798 267.317C249.842 267.958 252.3 268.856 254.201 269.986L255.223 268.267C253.079 266.993 250.398 266.032 247.21 265.36L246.798 267.317ZM253.807 268.703L249.543 277.805L251.354 278.653L255.618 269.551L253.807 268.703ZM250.939 277.358C246.903 275.084 242.497 273.949 237.738 273.949V275.949C242.164 275.949 246.231 277.001 249.957 279.1L250.939 277.358ZM237.738 273.949C234.944 273.949 232.689 274.334 231.1 275.224L232.077 276.969C233.221 276.329 235.065 275.949 237.738 275.949V273.949ZM231.1 275.224C229.527 276.105 228.538 277.373 228.538 279.049H230.538C230.538 278.319 230.916 277.62 232.077 276.969L231.1 275.224ZM228.538 279.049C228.538 279.923 228.778 280.726 229.3 281.402C229.813 282.068 230.543 282.538 231.405 282.857L232.1 280.981C231.485 280.754 231.108 280.472 230.884 280.181C230.667 279.9 230.538 279.542 230.538 279.049H228.538ZM231.405 282.857C232.981 283.441 235.416 283.972 238.653 284.465L238.955 282.488C235.741 281.998 233.475 281.491 232.1 280.981L231.405 282.857ZM238.64 284.463C242.224 285.061 245.128 285.708 247.365 286.4L247.956 284.49C245.601 283.761 242.601 283.096 238.969 282.491L238.64 284.463ZM247.386 286.406C249.501 287.011 251.342 288.142 252.917 289.82L254.375 288.45C252.562 286.52 250.411 285.191 247.935 284.483L247.386 286.406ZM252.917 289.82C254.39 291.387 255.188 293.628 255.188 296.679H257.188C257.188 293.279 256.292 290.49 254.375 288.45L252.917 289.82ZM255.188 296.679C255.188 299.196 254.439 301.413 252.936 303.367L254.521 304.587C256.298 302.277 257.188 299.629 257.188 296.679H255.188ZM252.936 303.367C251.435 305.318 249.2 306.89 246.158 308.044L246.867 309.914C250.166 308.663 252.742 306.899 254.521 304.587L252.936 303.367ZM246.167 308.041C243.189 309.138 239.595 309.701 235.36 309.701V311.701C239.763 311.701 243.604 311.116 246.858 309.917L246.167 308.041ZM292.535 307.913L293.129 308.717L293.74 308.266L293.469 307.556L292.535 307.913ZM287.861 310.045L288.096 311.017L288.107 311.014L288.117 311.012L287.861 310.045ZM269.903 306.683L269.217 307.411L269.224 307.417L269.903 306.683ZM265.639 276.753H266.639V275.753H265.639V276.753ZM258.833 276.753H257.833V277.753H258.833V276.753ZM258.833 266.913V265.913H257.833V266.913H258.833ZM265.639 266.913V267.913H266.639V266.913H265.639ZM265.639 256.171V255.171H264.639V256.171H265.639ZM278.431 256.171H279.431V255.171H278.431V256.171ZM278.431 266.913H277.431V267.913H278.431V266.913ZM289.419 266.913H290.419V265.913H289.419V266.913ZM289.419 276.753V277.753H290.419V276.753H289.419ZM278.431 276.753V275.753H277.431V276.753H278.431ZM279.825 299.057L279.08 299.724L279.098 299.744L279.118 299.764L279.825 299.057ZM289.091 298.893L290.025 298.536L289.546 297.281L288.481 298.1L289.091 298.893ZM291.94 307.109C290.805 307.948 289.369 308.611 287.605 309.078L288.117 311.012C290.07 310.495 291.75 309.737 293.129 308.717L291.94 307.109ZM287.625 309.073C285.905 309.49 284.071 309.701 282.121 309.701V311.701C284.216 311.701 286.209 311.474 288.096 311.017L287.625 309.073ZM282.121 309.701C277.04 309.701 273.24 308.406 270.582 305.949L269.224 307.417C272.36 310.317 276.706 311.701 282.121 311.701V309.701ZM270.589 305.955C268.006 303.522 266.639 299.888 266.639 294.875H264.639C264.639 300.249 266.114 304.487 269.217 307.411L270.589 305.955ZM266.639 294.875V276.753H264.639V294.875H266.639ZM265.639 275.753H258.833V277.753H265.639V275.753ZM259.833 276.753V266.913H257.833V276.753H259.833ZM258.833 267.913H265.639V265.913H258.833V267.913ZM266.639 266.913V256.171H264.639V266.913H266.639ZM265.639 257.171H278.431V255.171H265.639V257.171ZM277.431 256.171V266.913H279.431V256.171H277.431ZM278.431 267.913H289.419V265.913H278.431V267.913ZM288.419 266.913V276.753H290.419V266.913H288.419ZM289.419 275.753H278.431V277.753H289.419V275.753ZM277.431 276.753V294.711H279.431V276.753H277.431ZM277.431 294.711C277.431 296.732 277.938 298.448 279.08 299.724L280.57 298.39C279.853 297.589 279.431 296.407 279.431 294.711H277.431ZM279.118 299.764C280.335 300.981 281.982 301.533 283.925 301.533V299.533C282.369 299.533 281.283 299.101 280.532 298.35L279.118 299.764ZM283.925 301.533C286.138 301.533 288.082 300.93 289.7 299.686L288.481 298.1C287.257 299.042 285.757 299.533 283.925 299.533V301.533ZM288.157 299.25L291.601 308.27L293.469 307.556L290.025 298.536L288.157 299.25ZM341.322 291.595V292.595H342.248L342.319 291.672L341.322 291.595ZM307.948 291.595V290.595H306.704L306.972 291.81L307.948 291.595ZM312.212 298.073L312.79 297.257L312.79 297.257L312.212 298.073ZM326.644 299.467L326.995 300.403L327.003 300.4L327.011 300.397L326.644 299.467ZM331.646 296.187L332.381 295.509L331.688 294.757L330.952 295.467L331.646 296.187ZM338.452 303.567L339.205 304.225L339.796 303.549L339.187 302.889L338.452 303.567ZM307.046 307.831L306.589 308.72L306.599 308.725L307.046 307.831ZM298.19 299.713L297.334 300.229L297.334 300.229L298.19 299.713ZM298.108 276.343L297.248 275.832L297.246 275.836L298.108 276.343ZM306.554 268.225L307.028 269.105L307.033 269.103L306.554 268.225ZM330.334 268.061L330.803 267.178L330.803 267.178L330.334 268.061ZM338.534 276.097L337.663 276.587L337.667 276.595L337.672 276.603L338.534 276.097ZM311.392 277.409L310.752 276.641L310.752 276.641L311.392 277.409ZM307.784 284.133L306.796 283.981L306.619 285.133H307.784V284.133ZM329.514 284.133V285.133H330.683L330.502 283.978L329.514 284.133ZM325.906 277.491L325.254 278.249L325.26 278.254L325.266 278.259L325.906 277.491ZM340.568 288.151C340.568 288.144 340.568 288.157 340.566 288.209C340.563 288.254 340.56 288.316 340.555 288.396C340.545 288.556 340.53 288.778 340.509 289.064C340.468 289.635 340.407 290.453 340.325 291.518L342.319 291.672C342.48 289.577 342.568 288.366 342.568 288.151H340.568ZM341.322 290.595H307.948V292.595H341.322V290.595ZM306.972 291.81C307.625 294.781 309.186 297.157 311.635 298.889L312.79 297.257C310.756 295.818 309.474 293.875 308.925 291.38L306.972 291.81ZM311.635 298.889C314.078 300.618 317.08 301.451 320.576 301.451V299.451C317.403 299.451 314.829 298.699 312.79 297.257L311.635 298.889ZM320.576 301.451C322.966 301.451 325.111 301.11 326.995 300.403L326.293 298.531C324.678 299.136 322.779 299.451 320.576 299.451V301.451ZM327.011 300.397C328.948 299.634 330.724 298.465 332.34 296.907L330.952 295.467C329.507 296.861 327.948 297.878 326.278 298.537L327.011 300.397ZM330.911 296.865L337.717 304.245L339.187 302.889L332.381 295.509L330.911 296.865ZM337.699 302.909C333.782 307.393 328.023 309.701 320.248 309.701V311.701C328.436 311.701 334.813 309.253 339.205 304.225L337.699 302.909ZM320.248 309.701C315.404 309.701 311.16 308.77 307.493 306.936L306.599 308.725C310.585 310.719 315.144 311.701 320.248 311.701V309.701ZM307.504 306.942C303.83 305.052 301.021 302.47 299.046 299.196L297.334 300.229C299.514 303.843 302.609 306.674 306.589 308.72L307.504 306.942ZM299.046 299.196C297.071 295.922 296.074 292.195 296.074 287.987H294.074C294.074 292.526 295.154 296.616 297.334 300.229L299.046 299.196ZM296.074 287.987C296.074 283.831 297.045 280.127 298.97 276.849L297.246 275.836C295.126 279.446 294.074 283.505 294.074 287.987H296.074ZM298.968 276.853C300.954 273.509 303.636 270.932 307.028 269.105L306.08 267.344C302.366 269.345 299.418 272.179 297.248 275.832L298.968 276.853ZM307.033 269.103C310.483 267.221 314.334 266.273 318.608 266.273V264.273C314.026 264.273 309.841 265.293 306.075 267.347L307.033 269.103ZM318.608 266.273C322.778 266.273 326.524 267.169 329.865 268.944L330.803 267.178C327.147 265.236 323.075 264.273 318.608 264.273V266.273ZM329.865 268.944C333.192 270.712 335.787 273.253 337.663 276.587L339.406 275.607C337.345 271.944 334.473 269.127 330.803 267.178L329.865 268.944ZM337.672 276.603C339.592 279.872 340.568 283.71 340.568 288.151H342.568C342.568 283.408 341.522 279.21 339.396 275.59L337.672 276.603ZM318.69 273.949C315.591 273.949 312.923 274.831 310.752 276.641L312.032 278.177C313.797 276.706 315.994 275.949 318.69 275.949V273.949ZM310.752 276.641C308.573 278.456 307.265 280.929 306.796 283.981L308.773 284.285C309.178 281.652 310.275 279.642 312.032 278.177L310.752 276.641ZM307.784 285.133H329.514V283.133H307.784V285.133ZM330.502 283.978C330.031 280.976 328.72 278.534 326.546 276.723L325.266 278.259C327.028 279.728 328.122 281.713 328.526 284.288L330.502 283.978ZM326.559 276.733C324.392 274.867 321.748 273.949 318.69 273.949V275.949C321.318 275.949 323.485 276.725 325.254 278.249L326.559 276.733ZM362.303 271.751H361.303V274.858L363.115 272.334L362.303 271.751ZM368.453 266.913L368.068 265.99L368.061 265.993L368.453 266.913ZM377.473 265.273H378.473V264.273H377.473V265.273ZM377.473 277.081L377.396 278.078L378.473 278.161V277.081H377.473ZM365.993 280.033L366.69 280.749L366.7 280.74L365.993 280.033ZM362.877 310.045V311.045H363.877V310.045H362.877ZM350.085 310.045H349.085V311.045H350.085V310.045ZM350.085 265.929V264.929H349.085V265.929H350.085ZM362.303 265.929H363.303V264.929H362.303V265.929ZM363.115 272.334C364.532 270.36 366.432 268.859 368.844 267.833L368.061 265.993C365.335 267.153 363.135 268.877 361.49 271.168L363.115 272.334ZM368.837 267.836C371.318 266.802 374.19 266.273 377.473 266.273V264.273C373.976 264.273 370.835 264.837 368.068 265.99L368.837 267.836ZM376.473 265.273V277.081H378.473V265.273H376.473ZM377.549 276.084C376.133 275.975 375.139 275.917 374.603 275.917V277.917C375.05 277.917 375.969 277.968 377.396 278.078L377.549 276.084ZM374.603 275.917C370.744 275.917 367.594 277.017 365.286 279.326L366.7 280.74C368.546 278.894 371.136 277.917 374.603 277.917V275.917ZM365.295 279.316C362.956 281.594 361.877 284.961 361.877 289.217H363.877C363.877 285.273 364.875 282.517 366.69 280.749L365.295 279.316ZM361.877 289.217V310.045H363.877V289.217H361.877ZM362.877 309.045H350.085V311.045H362.877V309.045ZM351.085 310.045V265.929H349.085V310.045H351.085ZM350.085 266.929H362.303V264.929H350.085V266.929ZM361.303 265.929V271.751H363.303V265.929H361.303Z" fill="#39E991"/>
</svg>
